# xmcd CD database file
#
# Track frame offsets:
#	150
#	20137
#	40180
#	68960
#	92080
#	118372
#	125837
#	139745
#	165312
#	188870
#	208720
#	228792
#	257280
#
# Disc length: 3651 seconds
#
# Revision: 0
# Processed by: cddbd v1.5.1PL0 Copyright (c) Steve Scherf et al.
# Submitted via: CDex 1.50beta8
#
DISCID=b70e410d
DTITLE=Peter Frampton - Peter Frampton
DYEAR=1994
DGENRE=Rock
TTITLE0=Day In The Sun
TTITLE1=You Can Be Sure
TTITLE2=It All Comes Down To You
TTITLE3=You
TTITLE4=Can't Take That Away
TTITLE5=Young Island
TTITLE6=Off The Hook
TTITLE7=Waiting For Your Love
TTITLE8=So Hard To Believe
TTITLE9=Out Of The Blue
TTITLE10=Shelter Through The Night
TTITLE11=Changing All The Time
TTITLE12=Diamond Eyes
EXTD=YEAR: 1994.4.21
EXTT0=
EXTT1=
EXTT2=
EXTT3=
EXTT4=
EXTT5=
EXTT6=
EXTT7=
EXTT8=
EXTT9=
EXTT10=
EXTT11=
EXTT12=
PLAYORDER=
